<svg xmlns="http://www.w3.org/2000/svg" viewBox="0 0 130 130"><defs><style>.cls-1{fill:none;stroke:#000;stroke-miterlimit:10;stroke-width:6px;}</style></defs><g id="Layer_2" data-name="Layer 2"><g id="Layer_1-2" data-name="Layer 1"><circle class="cls-1" cx="65" cy="65" r="62"/><path d="M33,50.28c.56-2.93,1.08-5.87,2.68-8.47,3.63-5.93,9.32-8.21,15.88-8.37,8.93-.22,17.89-.21,26.83,0,6.07.14,11.47,2.14,15.16,7.4a19.65,19.65,0,0,1,3.33,11.27c.13,8.6.19,17.2,0,25.78-.16,6.92-2.56,12.83-9,16.34a20.38,20.38,0,0,1-9.62,2.37c-8.82.1-17.66.19-26.48,0-6.62-.15-12.37-2.39-16-8.38-1.6-2.6-2.12-5.54-2.68-8.47ZM65,39.5c-4.38,0-8.77-.09-13.15,0-6.85.16-11.06,3.37-12.3,9.26a18.31,18.31,0,0,0-.47,3.82c0,8.3-.15,16.61,0,24.91s4.34,12.67,12.31,13c9,.33,18,.3,27,0,6.64-.22,10.58-3.41,11.85-9.15a15,15,0,0,0,.45-3.12c0-9.46.57-18.94-.29-28.38-.5-5.6-4.25-9.25-9.83-10C75.43,39.1,70.22,39.61,65,39.5Z"/><path d="M81.51,65.12A16.58,16.58,0,1,1,65,48.55,16.61,16.61,0,0,1,81.51,65.12ZM75.37,65a10.44,10.44,0,1,0-10.46,10.3A10.42,10.42,0,0,0,75.37,65Z"/><path d="M82,44.22a3.94,3.94,0,1,1-4,4A4,4,0,0,1,82,44.22Z"/></g></g></svg>