<svg xmlns="http://www.w3.org/2000/svg" viewBox="0 0 130 130"><defs><style>.cls-1{fill:none;stroke:#000;stroke-miterlimit:10;stroke-width:6px;}</style></defs><g id="Layer_2" data-name="Layer 2"><g id="Layer_1-2" data-name="Layer 1"><circle class="cls-1" cx="65" cy="65" r="62"/><path d="M48.33,41.67a6.29,6.29,0,0,1-6.66,6.66A6.41,6.41,0,0,1,35,42a6.76,6.76,0,0,1,6.67-7A6.48,6.48,0,0,1,48.33,41.67Z"/><rect x="35" y="51.67" width="13.33" height="43.33"/><path d="M80.33,52.33A14.57,14.57,0,0,0,67.67,59h-.34l-.66-5.67h-12c0,3.67.33,8,.33,13V95H68.33V71.33A10.07,10.07,0,0,1,68.67,68c1-2.33,2.66-5.33,6.33-5.33,4.67,0,6.67,4,6.67,9.33V95H95V70.33C95,58,88.67,52.33,80.33,52.33Z"/></g></g></svg>