<svg xmlns="http://www.w3.org/2000/svg" viewBox="0 0 130 130"><defs><style>.cls-1,.cls-2{fill:none;stroke:#000;stroke-miterlimit:10;}.cls-1{stroke-width:6px;}.cls-2{stroke-linecap:round;stroke-width:5px;}</style></defs><g id="Layer_2" data-name="Layer 2"><g id="Layer_1-2" data-name="Layer 1"><circle class="cls-1" cx="65" cy="65" r="62"/><path d="M95,94.48c-4.61,5.8-10,7-16.77,3.92C63.66,91.64,51,82.59,41.89,69.08c-4.84-6.43-9.07-13.17-10.78-21.2-1.27-5.59,1.36-9.26,5.93-11.94,4.14-2.44,7.9-2.1,11,1.77,1.78,2.2,3.59,4.38,5.18,6.71,4.39,6.4,4.3,7.26-1.28,12.83a5.63,5.63,0,0,0-1.27,6.81C54.05,72,60,77.32,67.83,80.52c2.51,1,4.67.36,6.59-1.9,3.81-4.49,6.18-4.8,11.19-1.68a84.9,84.9,0,0,1,8,5.83C98.65,86.8,98.9,89.53,95,94.48Z"/><path class="cls-2" d="M71.93,47.94h.28a9,9,0,0,1,9,9"/><path class="cls-2" d="M71.93,38.94h.28a18,18,0,0,1,18,18"/><path class="cls-2" d="M72.93,29.94h.28a26,26,0,0,1,26,26"/></g></g></svg>