<svg xmlns="http://www.w3.org/2000/svg" viewBox="0 0 130 130"><defs><style>.cls-1{fill:#1d1d1b;}.cls-2{fill:none;stroke:#000;stroke-miterlimit:10;stroke-width:6px;}</style></defs><g id="Layer_2" data-name="Layer 2"><g id="Layer_1-2" data-name="Layer 1"><path class="cls-1" d="M75.37,81.15c-5.53,1.29-8.89.5-15.61-3.81-2.23,9-4.26,18.13-12.07,25.7-.79-6.31-1.11-11.79,0-17.3.81-4.07,1.86-8.09,2.85-12.13,1.38-5.57,3.5-11,1.74-17a10.71,10.71,0,0,1,1.92-9c2.19-3.16,5.28-4.93,9-3.32,3.55,1.53,4.39,4.78,3.44,8.4-1.06,4-2.19,8-3.42,12-.86,2.77-.7,5.3,1.5,7.32a7.53,7.53,0,0,0,8.41,1.36c8.4-3.69,9.85-11.6,10.77-19.44.78-6.66-1-12.62-7.17-16.39-12.94-8-30.39-.14-33,14.71a13.6,13.6,0,0,0,2,10.47c.86,1.25,1.66,2.3,1.31,4-.87,4.42-2.42,5.26-5.94,2.49-6.39-5-7.24-12-6-19.42,2.17-13,15.09-22.57,30.58-22.82,14.72-.24,26.28,8.1,29,20.89C97.79,62.49,88.77,78,75.37,81.15Z"/><circle class="cls-2" cx="65" cy="65" r="62"/></g></g></svg>