<svg xmlns="http://www.w3.org/2000/svg" viewBox="0 0 130 130"><defs><style>.cls-1{fill:#020303;}.cls-2{fill:#fdfdfd;}.cls-3{fill:none;stroke:#000;stroke-miterlimit:10;stroke-width:6px;}</style></defs><g id="Layer_2" data-name="Layer 2"><g id="Layer_1-2" data-name="Layer 1"><path class="cls-1" d="M32,63.82c-.08-2.62.24-5.12-.78-7.81-2.81-7.48-1.5-14.49,4.22-20.24C41,30.23,47.83,28.42,55.2,31a30.1,30.1,0,0,0,10.16,1.59c20.58,0,35.64,17,33.07,37.41A10.3,10.3,0,0,0,99,74.81c2.61,7.71.78,14.56-5,20.06S81.47,101.35,74.07,99a12,12,0,0,0-5.26-.73C48.6,100.62,31.39,84.4,32,63.82Z"/><path class="cls-2" d="M65,42.37a23.27,23.27,0,0,1,10.22,1.85c2.61,1.19,5,2.7,6.37,5.35s2,5.52-1.15,7.42c-3,1.81-5.67.7-7-2.24-2.49-5.33-6.87-5.73-11.74-5-2.41.34-4.64,1.44-4.91,4.16s2.05,3.67,4.11,4.28c4.28,1.28,8.68,2.2,13,3.46,7.49,2.21,11.1,6.34,11,12.32-.08,6.16-4.55,11.28-11.72,13a30.89,30.89,0,0,1-17.23-.43,14.4,14.4,0,0,1-9.13-7.94c-1.2-2.75-1.78-5.75,1.42-7.42s5.51-.1,7.2,3c3.42,6.38,8.05,8,14.42,5.63,2.54-1,4.42-2.36,4.42-5.32s-2.16-4.07-4.4-4.75c-4.13-1.24-8.4-2-12.51-3.27-7.7-2.4-11-6.51-10.52-12.5S52.48,43.56,60,42.69C61.64,42.5,63.31,42.47,65,42.37Z"/><circle class="cls-3" cx="65" cy="65" r="62"/></g></g></svg>