<svg xmlns="http://www.w3.org/2000/svg" viewBox="0 0 130 130"><defs><style>.cls-1,.cls-2{fill:none;stroke:#000;stroke-miterlimit:10;stroke-width:6px;}.cls-2{stroke-linecap:round;}</style></defs><g id="Layer_2" data-name="Layer 2"><g id="Layer_1-2" data-name="Layer 1"><circle class="cls-1" cx="65" cy="65" r="62"/><path class="cls-2" d="M97,80.12c.11,2-1.08,3.16-2.67,4a8.44,8.44,0,0,1-3,1.22,3.39,3.39,0,0,0-3.52,2.83c-.6,2.06-2.63,2.07-4.32,1.69-3.78-.84-6.82.32-9.91,2.49-5.42,3.83-11.21,4-16.73.2-3.29-2.25-6.59-3.45-10.61-2.64-2.08.41-3.94-.12-4.38-2.7-.23-1.37-1.28-1.65-2.44-1.72A10,10,0,0,1,35,83.75a3.81,3.81,0,0,1-2-3.67c.1-1.82,1.34-2.52,2.83-2.87,4.48-1.06,7.43-4,9.73-7.75.82-1.36.81-2.15-.89-2.62a10.83,10.83,0,0,1-3-1.3c-1.76-1.09-3.07-2.61-2.4-4.84.63-2.06,2.17-3.48,4.36-3.15,2.88.43,3-.85,2.91-3.17-.41-7.39,2-13.48,8.86-17.13s13.83-3.36,20.48.8c5.51,3.43,7.64,8.62,7.43,14.92C83,55.74,82.68,58.3,87,57.65,89,57.36,90.43,59,90.82,61c.43,2.25-1.1,3.5-2.8,4.67-1.34.94-4.08.65-4,2.48s1.8,3.62,3.25,5.15a14.2,14.2,0,0,0,6.56,3.78C95.37,77.55,96.9,78.12,97,80.12Z"/></g></g></svg>