<svg xmlns="http://www.w3.org/2000/svg" viewBox="0 0 130 130"><defs><style>.cls-1{fill:none;stroke:#000;stroke-miterlimit:10;stroke-width:6px;}.cls-2{fill:#020303;}</style></defs><g id="Layer_2" data-name="Layer 2"><g id="Layer_1-2" data-name="Layer 1"><circle class="cls-1" cx="65" cy="65" r="62"/><path class="cls-2" d="M77.51,50.89c0,9.84.1,18.71,0,27.57-.17,12-8.75,21-20.42,21.6-10.75.53-20.15-7.56-21.86-18.85-1.77-11.66,8-23.24,19.85-23.72,2-.08,2.87.45,2.63,2.54a18.17,18.17,0,0,0,0,3.38c.23,2.82.19,4.73-3.79,5-4.84.36-8.22,5.25-8.24,10.24a10.69,10.69,0,0,0,8.13,10.51,11.35,11.35,0,0,0,12.48-5.72,15,15,0,0,0,1.33-7c0-14.1.13-28.2,0-42.3,0-3.18.6-4.32,4.09-4.28,4,0,6.28.47,7.48,5.22C80.64,41,85.48,44.71,91.5,46.06c2.72.61,3.91,1.69,3.38,4.45a6.72,6.72,0,0,0,0,1.27c0,7.88-.81,8.42-8.36,5.63C83.18,56.18,80.54,53.94,77.51,50.89Z"/></g></g></svg>