<svg xmlns="http://www.w3.org/2000/svg" viewBox="0 0 130 130"><defs><style>.cls-1{fill:#010101;}.cls-2{fill:none;stroke:#000;stroke-miterlimit:10;stroke-width:6px;}</style></defs><g id="Layer_2" data-name="Layer 2"><g id="Layer_1-2" data-name="Layer 1"><path class="cls-1" d="M28.59,88.69c7.36,0,14.1-1.55,20.34-6.22-6.2-1.53-11-4.35-13.27-10.29,1.29-1.51,3.33.43,4.71-1.34C34,68.12,30.36,63.58,30,56.43L36.28,58c-6.16-6-7.84-12.35-4.21-20.33C37.59,43.4,43.3,48,50.41,50.59a42.44,42.44,0,0,0,11.11,2.63c1.69.13,2.24-.16,2.14-2.11C63,36.92,79.21,30.42,88.58,38c4.11,3.32,7.34-.87,11.24-1.36-.29,3.09-2.8,4.7-4.47,7,2.29.73,4-1.27,6.06-1,0,.28,0,.68-.12.8-5.43,4.29-6.36,10.22-7.58,16.74C88.09,90.08,55,104.54,28.59,88.69Z"/><circle class="cls-2" cx="65" cy="65" r="62"/></g></g></svg>