<svg xmlns="http://www.w3.org/2000/svg" viewBox="0 0 130 130"><defs><style>.cls-1{fill:none;stroke:#000;stroke-miterlimit:10;stroke-width:6px;}.cls-2,.cls-3{fill:#010101;}.cls-3{fill-rule:evenodd;}</style></defs><g id="Layer_2" data-name="Layer 2"><g id="Layer_1-2" data-name="Layer 1"><circle class="cls-1" cx="65" cy="65" r="62"/><path class="cls-2" d="M31,99.08l4.89-18.23A33.75,33.75,0,1,1,49.33,94.17ZM50.24,87.34l1.15.69A27.4,27.4,0,1,0,42,78.74l.71,1.16L40,90.08Z"/><path class="cls-3" d="M77.86,69.27c-1.39-.83-3.19-1.76-4.83-1.09-1.25.51-2,2.47-2.86,3.47a1.19,1.19,0,0,1-1.55.34,21.83,21.83,0,0,1-10.9-9.33,1.34,1.34,0,0,1,.17-1.83,7.38,7.38,0,0,0,2-3.21A7,7,0,0,0,59,53.81c-.65-1.41-1.39-3.43-2.81-4.23A3.84,3.84,0,0,0,52,50.2a8.49,8.49,0,0,0-2.94,6.72,9.49,9.49,0,0,0,.27,2.13,17.66,17.66,0,0,0,2,4.72A37.17,37.17,0,0,0,53.5,67a32.91,32.91,0,0,0,9.27,8.6,28.27,28.27,0,0,0,5.77,2.75c2.27.75,4.29,1.53,6.73,1.06a8.14,8.14,0,0,0,6.1-4.53,4,4,0,0,0,.28-2.32C81.31,71,79.15,70,77.86,69.27Z"/></g></g></svg>