<svg xmlns="http://www.w3.org/2000/svg" viewBox="0 0 130 130"><defs><style>.cls-1{fill:none;stroke:#000;stroke-miterlimit:10;stroke-width:6px;}.cls-2{fill:#fff;}.cls-3{fill:#010101;}</style></defs><g id="Layer_2" data-name="Layer 2"><g id="Layer_1-2" data-name="Layer 1"><circle class="cls-1" cx="65" cy="65" r="62"/><ellipse class="cls-2" cx="65" cy="65" rx="21.42" ry="16.37"/><path class="cls-3" d="M99,56.12A14.92,14.92,0,0,0,84.08,41.2H45.92A14.92,14.92,0,0,0,31,56.12V73.88A14.92,14.92,0,0,0,45.92,88.8H84.08A14.92,14.92,0,0,0,99,73.88ZM76.56,66.33,59.45,74.8c-.67.36-3,1.57-3-.89V56.53c0-2.17,2.3-1.25,3-.87l16.38,8.91C77.8,65.52,77.26,66,76.56,66.33Z"/></g></g></svg>